<svg width="265" height="343" viewBox="0 0 265 343" fill="none" xmlns="http://www.w3.org/2000/svg">
<path d="M5.13746 259.316L0.137456 259.316L5.13746 259.316ZM88.4678 187.369H93.4678V177.369H88.4678V187.369ZM113.899 5.00003V3.05176e-05C111.138 3.05176e-05 108.899 2.23861 108.899 5.00003L113.899 5.00003ZM138.679 5.00003L138.679 3.05176e-05H138.679V5.00003ZM5 5.00003V3.05176e-05C2.23858 3.05176e-05 0 2.23861 0 5.00003L5 5.00003ZM108.899 156.937V161.937H118.899V156.937H108.899ZM177.804 337.567V342.567C180.566 342.567 182.804 340.328 182.804 337.567H177.804ZM182.804 208.453V203.453H172.804V208.453H182.804ZM177.804 65.6446V60.6446C175.043 60.6446 172.804 62.8832 172.804 65.6446H177.804ZM177.804 127.593H172.804C172.804 130.355 175.043 132.593 177.804 132.593V127.593ZM220.842 5.00003L220.842 3.05175e-05L220.842 3.05176e-05L220.842 5.00003ZM259.968 35.3223L254.968 35.3135C254.968 35.3881 254.969 35.4627 254.972 35.5372L259.968 35.3223ZM80.8594 156.285V161.285H90.8594V156.285H80.8594ZM254.099 127.593H259.099V122.593H254.099V127.593ZM259.992 5.00005L264.99 4.86722C264.918 2.15849 262.702 4.74732e-05 259.992 4.63756e-05L259.992 5.00005ZM118.899 194.759V189.759H108.899V194.759H118.899ZM86.4408 289.312L91.4393 289.436C91.4406 289.383 91.4411 289.329 91.4407 289.276L86.4408 289.312ZM90.8593 208.417L90.8233 203.417L80.8236 203.489L80.8595 208.489L90.8593 208.417ZM99.8792 313.439L100.112 308.445L100.112 308.445L99.8792 313.439ZM88.4678 332.567C71.1259 332.567 51.462 328.763 36.2698 317.855C21.3507 307.143 10.1407 289.16 10.1375 259.315L0.137456 259.316C0.140998 292.072 12.6608 313.215 30.4375 325.978C47.9411 338.546 69.939 342.567 88.4678 342.567V332.567ZM10.1375 259.315C10.1363 248.314 12.0175 230.292 22.5426 215.136C32.837 200.312 52.0053 187.369 88.4678 187.369V177.369C49.2876 177.369 26.7896 191.488 14.3288 209.432C2.09881 227.043 0.136177 247.495 0.137456 259.316L10.1375 259.315ZM113.899 10H138.679V3.05176e-05H113.899V10ZM96.945 177.369C78.361 177.369 56.6576 173.037 39.6897 159.31C22.9217 145.746 10 122.373 10 82.599H0C0 124.728 13.8141 151.24 33.4003 167.085C52.7865 182.768 77.0556 187.369 96.945 187.369V177.369ZM10 82.599V5.00003H0V82.599H10ZM108.899 5.00003V156.937H118.899V5.00003H108.899ZM172.804 208.453V337.567H182.804V208.453H172.804ZM172.804 65.6446V127.593H182.804V65.6446H172.804ZM138.679 5.00003C138.679 10 138.679 10 138.679 10C138.679 10 138.68 10 138.68 10C138.682 10 138.683 10 138.686 10C138.691 10 138.698 10 138.708 10C138.728 10 138.757 10 138.796 10C138.874 10 138.99 10 139.143 10C139.449 10 139.904 10 140.497 10C141.684 10 143.427 10 145.648 10.0001C150.09 10.0001 156.448 10.0001 164.11 10.0001C179.435 10.0001 199.976 10.0001 220.842 10L220.842 3.05176e-05C199.976 0.000107707 179.435 0.000107707 164.11 8.84095e-05C156.448 7.87609e-05 150.09 6.42879e-05 145.648 5.22271e-05C143.427 4.61967e-05 141.684 4.07693e-05 140.497 3.68495e-05C139.904 3.48897e-05 139.449 3.33067e-05 139.143 3.22137e-05C138.99 3.16672e-05 138.874 3.12431e-05 138.796 3.09558e-05C138.757 3.08121e-05 138.728 3.07025e-05 138.708 3.06289e-05C138.698 3.05921e-05 138.691 3.05643e-05 138.686 3.05457e-05C138.684 3.05363e-05 138.682 3.05293e-05 138.68 3.05247e-05C138.68 3.05223e-05 138.679 3.05206e-05 138.679 3.05194e-05C138.679 3.05182e-05 138.679 3.05176e-05 138.679 5.00003ZM249.099 154.981C249.099 155.719 249.09 161.377 245.711 166.745C242.579 171.719 235.97 177.369 220.842 177.369V187.369C238.972 187.369 248.991 180.304 254.173 172.073C259.108 164.235 259.099 156.199 259.099 154.981H249.099ZM220.842 60.6446H177.804V70.6446H220.842V60.6446ZM259.968 35.3223C254.972 35.5372 254.972 35.5341 254.972 35.531C254.972 35.5302 254.972 35.5273 254.972 35.5255C254.972 35.5221 254.972 35.5191 254.972 35.5165C254.971 35.5114 254.971 35.508 254.971 35.5064C254.971 35.5031 254.971 35.5066 254.971 35.5168C254.972 35.5373 254.973 35.5841 254.973 35.6557C254.972 35.799 254.969 36.04 254.952 36.3645C254.918 37.0154 254.831 37.9899 254.618 39.1782C254.19 41.5699 253.268 44.7193 251.324 47.8376C247.643 53.7396 239.6 60.6446 220.842 60.6446V70.6446C242.514 70.6446 254.034 62.3884 259.809 53.1293C262.592 48.667 263.871 44.2358 264.461 40.9421C264.758 39.2877 264.885 37.8933 264.938 36.886C264.964 36.3813 264.972 35.9708 264.973 35.67C264.973 35.5195 264.971 35.3961 264.969 35.3018C264.968 35.2546 264.967 35.2147 264.966 35.1822C264.965 35.166 264.965 35.1516 264.964 35.1391C264.964 35.1329 264.964 35.1271 264.964 35.1219C264.964 35.1192 264.964 35.1156 264.963 35.1143C264.963 35.1108 264.963 35.1074 259.968 35.3223ZM5 10H63.6883V3.05176e-05H5V10ZM63.6883 10C68.3561 10 71.5246 11.1526 73.7325 12.6245C75.9716 14.1173 77.5268 16.1434 78.6159 18.3217C79.7148 20.5195 80.2892 22.7778 80.581 24.5289C80.725 25.3926 80.795 26.1014 80.8288 26.5747C80.8457 26.8105 80.8533 26.9853 80.8568 27.0887C80.8585 27.1404 80.8592 27.174 80.8594 27.1882C80.8595 27.1953 80.8595 27.1976 80.8595 27.1948C80.8595 27.1934 80.8595 27.1907 80.8594 27.1868C80.8594 27.1848 80.8594 27.1826 80.8594 27.18C80.8594 27.1787 80.8594 27.1765 80.8594 27.1758C80.8594 27.1735 80.8594 27.1712 85.8594 27.1712C90.8594 27.1712 90.8594 27.1686 90.8594 27.166C90.8594 27.165 90.8594 27.1623 90.8594 27.1603C90.8594 27.1564 90.8594 27.1521 90.8594 27.1474C90.8593 27.1381 90.8593 27.1275 90.8592 27.1154C90.859 27.0913 90.8587 27.0618 90.8581 27.0269C90.857 26.9573 90.8549 26.8663 90.8512 26.7556C90.8438 26.5342 90.8299 26.2327 90.8034 25.8623C90.7506 25.1231 90.6474 24.0998 90.445 22.8849C90.044 20.4789 89.2326 17.1945 87.5602 13.8495C85.8779 10.485 83.276 6.96835 79.2795 4.30402C75.2517 1.61882 70.106 3.05176e-05 63.6883 3.05176e-05V10ZM80.8594 27.1712V156.285H90.8594V27.1712H80.8594ZM249.099 127.593V154.981H259.099V127.593H249.099ZM220.842 10L259.992 10L259.992 4.63756e-05L220.842 3.05176e-05L220.842 10ZM254.994 5.13288C254.994 5.12756 254.995 5.23482 254.996 5.5312C254.997 5.79541 254.998 6.15749 254.999 6.60558C255 7.5009 255 8.72632 255 10.171C254.999 13.0596 254.995 16.8158 254.99 20.5413C254.985 24.2664 254.98 27.9595 254.975 30.7214C254.973 32.1023 254.971 33.2504 254.97 34.0532C254.969 34.4546 254.969 34.7697 254.968 34.9845C254.968 35.0918 254.968 35.1741 254.968 35.2295C254.968 35.2572 254.968 35.2782 254.968 35.2923C254.968 35.2994 254.968 35.3047 254.968 35.3082C254.968 35.31 254.968 35.3113 254.968 35.3122C254.968 35.3126 254.968 35.313 254.968 35.3132C254.968 35.3134 254.968 35.3135 259.968 35.3223C264.968 35.3311 264.968 35.331 264.968 35.3308C264.968 35.3306 264.968 35.3302 264.968 35.3298C264.968 35.3289 264.968 35.3275 264.968 35.3258C264.968 35.3222 264.968 35.3169 264.968 35.3098C264.968 35.2957 264.968 35.2747 264.968 35.247C264.968 35.1915 264.968 35.1092 264.968 35.0017C264.969 34.7869 264.969 34.4717 264.97 34.0701C264.971 33.267 264.973 32.1186 264.975 30.7374C264.98 27.9749 264.985 24.2806 264.99 20.554C265 13.1829 265.006 5.47509 264.99 4.86722L254.994 5.13288ZM108.899 194.759V289.312H118.899V194.759H108.899ZM91.4407 289.276L90.8593 208.417L80.8595 208.489L81.4409 289.348L91.4407 289.276ZM100.112 308.445C96.6711 308.285 94.2499 305.456 92.7296 299.827C92.0356 297.258 91.7056 294.639 91.5552 292.619C91.4809 291.621 91.4525 290.796 91.4424 290.233C91.4374 289.952 91.437 289.737 91.4376 289.6C91.438 289.532 91.4386 289.483 91.439 289.455C91.4392 289.441 91.4394 289.432 91.4394 289.429C91.4395 289.428 91.4395 289.427 91.4394 289.428C91.4394 289.429 91.4394 289.43 91.4394 289.431C91.4394 289.432 91.4393 289.433 91.4393 289.433C91.4393 289.435 91.4393 289.436 86.4408 289.312C81.4423 289.188 81.4423 289.19 81.4423 289.192C81.4422 289.192 81.4422 289.194 81.4422 289.195C81.4421 289.198 81.442 289.201 81.442 289.204C81.4418 289.211 81.4416 289.219 81.4414 289.229C81.441 289.248 81.4406 289.273 81.4401 289.304C81.4392 289.365 81.4383 289.448 81.4378 289.552C81.4367 289.759 81.4375 290.049 81.444 290.411C81.4569 291.134 81.4925 292.149 81.5828 293.361C81.7616 295.763 82.1624 299.054 83.0755 302.435C84.7695 308.707 89.0675 317.942 99.6469 318.434L100.112 308.445ZM113.899 289.312C108.899 289.312 108.899 289.311 108.899 289.31C108.899 289.309 108.899 289.308 108.899 289.308C108.899 289.307 108.899 289.306 108.899 289.305C108.899 289.305 108.899 289.305 108.899 289.308C108.899 289.312 108.899 289.322 108.899 289.338C108.898 289.369 108.898 289.422 108.896 289.496C108.894 289.644 108.888 289.874 108.876 290.173C108.851 290.774 108.802 291.649 108.702 292.702C108.5 294.835 108.102 297.583 107.34 300.243C106.559 302.967 105.508 305.197 104.237 306.634C103.12 307.899 101.892 308.528 100.112 308.445L99.6468 318.434C104.876 318.677 108.906 316.453 111.731 313.255C114.404 310.23 115.981 306.387 116.953 302.998C117.943 299.544 118.422 296.138 118.658 293.645C118.777 292.386 118.837 291.33 118.868 290.578C118.883 290.201 118.891 289.899 118.895 289.685C118.897 289.577 118.898 289.491 118.898 289.429C118.899 289.398 118.899 289.372 118.899 289.353C118.899 289.343 118.899 289.335 118.899 289.328C118.899 289.324 118.899 289.321 118.899 289.319C118.899 289.317 118.899 289.316 118.899 289.315C118.899 289.314 118.899 289.312 113.899 289.312ZM198.02 239.536L252.795 239.536L252.795 229.536L198.02 229.536L198.02 239.536ZM198.019 269.533H238.449V259.533H198.019V269.533ZM198.019 299.529H226.711V289.529H198.019V299.529ZM177.804 332.567H88.4678V342.567H177.804V332.567ZM220.842 177.369H96.945V187.369H220.842V177.369ZM177.804 132.593H254.099V122.593H177.804V132.593Z" fill="#0F1F68"/>
</svg>
