<svg width="28" height="41" viewBox="0 0 28 41" fill="none" xmlns="http://www.w3.org/2000/svg">
<path d="M8.625 17.1295C8.625 17.1295 2.125 16.3469 2.125 18.6295C2.125 18.6295 1.625 30.2826 2.625 32.1295C3.625 33.9764 6.20467 35.1295 10.125 35.1295C30 37.8006 30.5 17 23.5 17C21.3931 17 20 17.3228 20 23.6711C20 30.0194 15.125 29.6295 8.625 29.6295L8.625 17.1295Z" fill="#31DAF1"/>
<path d="M11 18C11 17.4477 11.4477 17 12 17H17C17.5523 17 18 17.4477 18 18V37.5C18 39.433 16.433 41 14.5 41V41C12.567 41 11 39.433 11 37.5V18Z" fill="black"/>
<path d="M9 7.5C9 6.67157 9.67157 6 10.5 6H21.5C22.3284 6 23 6.67157 23 7.5V7.5C23 8.32843 22.3284 9 21.5 9H10.5C9.67157 9 9 8.32843 9 7.5V7.5Z" fill="#31DAF1"/>
<path d="M2 13C2 11.8954 2.89543 11 4 11H19V12C19 13.6569 17.6569 15 16 15H4C2.89543 15 2 14.1046 2 13V13Z" fill="black"/>
<path d="M0 0H16C17.6569 0 19 1.34315 19 3V4H3C1.34315 4 0 2.65685 0 1V0Z" fill="black"/>
</svg>
