<svg width="356" height="151" viewBox="0 0 356 151" fill="none" xmlns="http://www.w3.org/2000/svg">
<path d="M170.5 120L53.5 3L3 3V148H29.5V50.5L127 148H198.5V70.1408" stroke="black" stroke-width="5"/>
<path d="M170.5 120L53.5 3L3 3V148H29.5V50.5L127 148H198.5V70.1408" stroke="black" stroke-width="5"/>
<path d="M29.5 148H56V77" stroke="black" stroke-width="5"/>
<path d="M29.5 148H56V77" stroke="black" stroke-width="5"/>
<path d="M19.5 3L165 148.5" stroke="black" stroke-width="5"/>
<path d="M19.5 3L165 148.5" stroke="black" stroke-width="5"/>
<path d="M170.5 3V120" stroke="black" stroke-width="5"/>
<path d="M170.5 3V120" stroke="black" stroke-width="5"/>
<path d="M142.5 92V50.5V3H170.5" stroke="black" stroke-width="5"/>
<path d="M142.5 92V50.5V3H170.5" stroke="black" stroke-width="5"/>
<path d="M170.5 3L286 118.5V3H315.5H353.5V29H315.5V49.5H353.5V75.5H315.5V148H277.5L198.5 70.5" stroke="black" stroke-width="5"/>
<path d="M170.5 3L286 118.5V3H315.5H353.5V29H315.5V49.5H353.5V75.5H315.5V148H277.5L198.5 70.5" stroke="black" stroke-width="5"/>
<path d="M278 148H240.5L198.5 107.37" stroke="black" stroke-width="5"/>
<path d="M278 148H240.5L198.5 107.37" stroke="black" stroke-width="5"/>
<path d="M286 3H262V94.5" stroke="black" stroke-width="5"/>
<path d="M286 3H262V94.5" stroke="black" stroke-width="5"/>
<path d="M353.5 29L341.5 41H315.5" stroke="black" stroke-width="5"/>
<path d="M353.5 29L341.5 41H315.5" stroke="black" stroke-width="5"/>
<path d="M353.5 76L341.5 88H315.5" stroke="black" stroke-width="5"/>
<path d="M353.5 76L341.5 88H315.5" stroke="black" stroke-width="5"/>
</svg>
