<svg width="169" height="242" viewBox="0 0 169 242" fill="none" xmlns="http://www.w3.org/2000/svg">
<path d="M58 62.5L65.5 62.5L65.5 62.4889L58 62.5ZM112.01 167.5L119.51 167.5L119.51 167.499L112.01 167.5ZM8.08247 160.176L15.5825 160.176L8.08247 160.176ZM58.0807 121.633H65.5807V106.633H58.0807V121.633ZM57.9193 8L57.9193 0.5C55.9283 0.5 54.0189 1.2917 52.6121 2.70063C51.2052 4.10955 50.4164 6.02006 50.4193 8.0111L57.9193 8ZM15.5 8V0.5H0.5V8H15.5ZM112.01 207V214.5C116.152 214.5 119.51 211.142 119.51 207H112.01ZM111.683 44.2882V36.7882C107.54 36.7882 104.183 40.1461 104.183 44.2882H111.683ZM111.683 81.3568H104.183C104.183 85.499 107.54 88.8568 111.683 88.8568V81.3568ZM160.981 26.1441L153.481 26.1309C153.48 26.2431 153.483 26.3552 153.488 26.4673L160.981 26.1441ZM157.459 81.3568H164.959C164.959 77.2147 161.602 73.8568 157.459 73.8568V81.3568ZM160.995 8.00001L168.493 7.80022C168.384 3.73735 165.059 0.500012 160.995 0.500011L160.995 8.00001ZM50.5 234.5V242H65.5V234.5H50.5ZM50.5 62.5V118H65.5V62.5H50.5ZM65.5 160V112H50.5V160H65.5ZM119.51 167.499L119.5 111.999L104.5 112.001L104.51 167.501L119.51 167.499ZM58.0807 199.5C58.0566 199.5 58.0326 199.5 58.0085 199.5L57.9915 214.5C58.0212 214.5 58.051 214.5 58.0807 214.5V199.5ZM58.0082 199.5C48.1389 199.489 37.4075 197.3 29.3486 191.516C21.6997 186.026 15.5843 176.694 15.5825 160.176L0.582474 160.177C0.58474 181.071 8.6717 195.139 20.6023 203.702C32.1229 211.971 46.3483 214.487 57.9918 214.5L58.0082 199.5ZM15.5825 160.176C15.5818 153.965 16.673 144.28 22.2163 136.319C27.4146 128.854 37.4178 121.633 58.0807 121.633V106.633C33.3579 106.633 18.3613 115.606 9.90657 127.748C1.79673 139.394 0.581666 152.731 0.582474 160.177L15.5825 160.176ZM63.167 106.633C52.6 106.633 40.7294 104.161 31.6363 96.8244C22.8463 89.7328 15.5 77.1638 15.5 54.4333H0.5C0.5 80.7115 9.19518 97.9925 22.2177 108.499C34.937 118.76 50.6499 121.633 63.167 121.633V106.633ZM15.5 54.4333V8H0.5V54.4333H15.5ZM50.4193 8.0111L50.5 62.5111L65.5 62.4889L65.4193 7.9889L50.4193 8.0111ZM104.51 167.5V207H119.51V167.5H104.51ZM104.183 44.2882V81.3568H119.183V44.2882H104.183ZM149.959 97.7451C149.959 97.9685 149.947 100.278 148.623 102.374C147.671 103.883 145.24 106.633 137.505 106.633V121.633C149.725 121.633 157.271 116.775 161.307 110.382C164.972 104.576 164.959 98.6922 164.959 97.7451H149.959ZM137.505 36.7882H111.683V51.7882H137.505V36.7882ZM160.981 26.1441C153.488 26.4673 153.487 26.4625 153.487 26.4578C153.487 26.4563 153.487 26.4516 153.487 26.4486C153.487 26.4425 153.486 26.4368 153.486 26.4313C153.486 26.4202 153.485 26.4102 153.485 26.4011C153.485 26.3829 153.484 26.3686 153.484 26.3579C153.483 26.3367 153.484 26.3301 153.484 26.3372C153.484 26.3516 153.483 26.419 153.477 26.5316C153.465 26.7597 153.432 27.1527 153.342 27.6527C153.158 28.6753 152.768 29.9805 151.981 31.2396C150.718 33.2582 147.458 36.7882 137.505 36.7882V51.7882C151.811 51.7882 160.288 46.2462 164.699 39.1927C166.748 35.9159 167.678 32.685 168.106 30.3056C168.322 29.1045 168.417 28.0801 168.457 27.3159C168.477 26.9324 168.483 26.61 168.484 26.3586C168.484 26.2328 168.482 26.1243 168.48 26.0344C168.479 25.9895 168.478 25.9491 168.477 25.9135C168.477 25.8957 168.476 25.879 168.475 25.8636C168.475 25.8559 168.475 25.8485 168.475 25.8414C168.474 25.8378 168.474 25.8327 168.474 25.8309C168.474 25.8259 168.474 25.8209 160.981 26.1441ZM149.959 81.3568V97.7451H164.959V81.3568H149.959ZM153.498 8.1998C153.497 8.1536 153.498 8.35527 153.499 8.96682C153.5 9.4987 153.5 10.2289 153.5 11.0926C153.499 12.819 153.497 15.0649 153.494 17.2938C153.491 19.5221 153.488 21.7315 153.485 23.3838C153.484 24.21 153.483 24.8968 153.482 25.3771C153.482 25.6172 153.481 25.8057 153.481 25.9341C153.481 25.9984 153.481 26.0476 153.481 26.0807C153.481 26.0973 153.481 26.1098 153.481 26.1182C153.481 26.1224 153.481 26.1256 153.481 26.1277C153.481 26.1288 153.481 26.1296 153.481 26.1301C153.481 26.1304 153.481 26.1306 153.481 26.1307C153.481 26.1308 153.481 26.1309 160.981 26.1441C168.481 26.1574 168.481 26.1573 168.481 26.1572C168.481 26.157 168.481 26.1568 168.481 26.1565C168.481 26.156 168.481 26.1552 168.481 26.1541C168.481 26.152 168.481 26.1488 168.481 26.1446C168.481 26.1362 168.481 26.1236 168.481 26.1069C168.481 26.0737 168.481 26.0244 168.481 25.9601C168.481 25.8315 168.482 25.6428 168.482 25.4025C168.483 24.9218 168.484 24.2345 168.485 23.4078C168.488 21.7545 168.491 19.5435 168.494 17.3129C168.5 12.9752 168.504 8.24779 168.493 7.80022L153.498 8.1998ZM50.5 160V207H65.5V160H50.5ZM50.5 207V234.5H65.5V207H50.5ZM112.01 199.5H58.0807V214.5H112.01V199.5ZM57.9193 15.5L160.995 15.5L160.995 0.500011L57.9193 0.5L57.9193 15.5ZM137.505 106.633H63.167V121.633H137.505V106.633ZM111.683 88.8568H157.459V73.8568H111.683V88.8568Z" fill="url(#paint0_linear)"/>
<defs>
<linearGradient id="paint0_linear" x1="84.5" y1="8" x2="84.5" y2="269" gradientUnits="userSpaceOnUse">
<stop offset="0.112462" stop-color="white"/>
<stop offset="0.980679" stop-color="white" stop-opacity="0"/>
</linearGradient>
</defs>
</svg>
