<svg width="62" height="81" viewBox="0 0 62 81" fill="none" xmlns="http://www.w3.org/2000/svg">
<path d="M21.9545 32.7031C21.9545 32.7031 8.26329 31.0849 8.26329 35.8046C8.26329 35.8046 7.21012 59.8992 9.31647 63.7178C11.4228 67.5364 20.6828 69.6904 25.1141 69.9207C72.9992 72.4092 67.7147 15.4465 46.0483 21.4425C46.0483 22.9416 46.488 37.8379 46.0483 48.4249C45.6086 59.0119 35.6458 58.5487 21.9545 58.5487L21.9545 32.7031Z" fill="#3E44D3"/>
<path d="M26 22C26 21.4477 26.4477 21 27 21H38C38.5523 21 39 21.4477 39 22V74.5C39 78.0899 36.0899 81 32.5 81C28.9101 81 26 78.0899 26 74.5V22Z" fill="#3E44D3"/>
<path d="M11 14C11 11.7909 12.7909 10 15 10H36C38.2091 10 40 11.7909 40 14C40 16.2091 38.2091 18 36 18H15C12.7909 18 11 16.2091 11 14Z" fill="#3E44D3"/>
<path d="M5 24C5 22.3431 6.34315 21 8 21H39V26C39 27.6569 37.6569 29 36 29H8C6.34315 29 5 27.6569 5 26V24Z" fill="#3E44D3"/>
<path d="M0 0H36C37.6569 0 39 1.34315 39 3V8H3C1.34315 8 0 6.65685 0 5V0Z" fill="#3E44D3"/>
</svg>
