<svg width="362" height="362" viewBox="0 0 362 362" fill="none" xmlns="http://www.w3.org/2000/svg">
<circle cx="181" cy="181" r="181" fill="black"/>
<path d="M165 136.5L172.5 136.5L172.5 136.489L165 136.5ZM219.01 241.5L226.51 241.5L226.51 241.499L219.01 241.5ZM115.082 234.176L122.582 234.176L115.082 234.176ZM165.081 195.633H172.581V180.633H165.081V195.633ZM164.919 82L164.919 74.5C162.928 74.5 161.019 75.2917 159.612 76.7006C158.205 78.1096 157.416 80.0201 157.419 82.0111L164.919 82ZM122.5 82V74.5H107.5V82H122.5ZM219.01 281V288.5C223.152 288.5 226.51 285.142 226.51 281H219.01ZM218.683 118.288V110.788C214.54 110.788 211.183 114.146 211.183 118.288H218.683ZM218.683 155.357H211.183C211.183 159.499 214.54 162.857 218.683 162.857V155.357ZM267.981 100.144L260.481 100.131C260.48 100.243 260.483 100.355 260.488 100.467L267.981 100.144ZM264.459 155.357H271.959C271.959 151.215 268.602 147.857 264.459 147.857V155.357ZM267.995 82L275.493 81.8002C275.384 77.7373 272.059 74.5 267.995 74.5L267.995 82ZM157.5 308.5V316H172.5V308.5H157.5ZM157.5 136.5V192H172.5V136.5H157.5ZM172.5 234V186H157.5V234H172.5ZM226.51 241.499L226.5 185.999L211.5 186.001L211.51 241.501L226.51 241.499ZM165.081 273.5C165.057 273.5 165.033 273.5 165.009 273.5L164.991 288.5C165.021 288.5 165.051 288.5 165.081 288.5V273.5ZM165.008 273.5C155.139 273.489 144.408 271.3 136.349 265.516C128.7 260.026 122.584 250.694 122.582 234.176L107.582 234.177C107.585 255.071 115.672 269.139 127.602 277.702C139.123 285.971 153.348 288.487 164.992 288.5L165.008 273.5ZM122.582 234.176C122.582 227.965 123.673 218.28 129.216 210.319C134.415 202.854 144.418 195.633 165.081 195.633V180.633C140.358 180.633 125.361 189.606 116.907 201.748C108.797 213.394 107.582 226.731 107.582 234.177L122.582 234.176ZM170.167 180.633C159.6 180.633 147.729 178.161 138.636 170.824C129.846 163.733 122.5 151.164 122.5 128.433H107.5C107.5 154.711 116.195 171.992 129.218 182.499C141.937 192.76 157.65 195.633 170.167 195.633V180.633ZM122.5 128.433V82H107.5V128.433H122.5ZM157.419 82.0111L157.5 136.511L172.5 136.489L172.419 81.9889L157.419 82.0111ZM211.51 241.5V281H226.51V241.5H211.51ZM211.183 118.288V155.357H226.183V118.288H211.183ZM256.959 171.745C256.959 171.969 256.947 174.278 255.623 176.374C254.671 177.883 252.24 180.633 244.505 180.633V195.633C256.725 195.633 264.271 190.775 268.307 184.382C271.972 178.576 271.959 172.692 271.959 171.745H256.959ZM244.505 110.788H218.683V125.788H244.505V110.788ZM267.981 100.144C260.488 100.467 260.487 100.463 260.487 100.458C260.487 100.456 260.487 100.452 260.487 100.449C260.487 100.443 260.486 100.437 260.486 100.431C260.486 100.42 260.485 100.41 260.485 100.401C260.485 100.383 260.484 100.369 260.484 100.358C260.483 100.337 260.484 100.33 260.484 100.337C260.484 100.352 260.483 100.419 260.477 100.532C260.465 100.76 260.432 101.153 260.342 101.653C260.158 102.675 259.768 103.98 258.981 105.24C257.718 107.258 254.458 110.788 244.505 110.788V125.788C258.811 125.788 267.288 120.246 271.699 113.193C273.748 109.916 274.678 106.685 275.106 104.306C275.322 103.105 275.417 102.08 275.457 101.316C275.477 100.932 275.483 100.61 275.484 100.359C275.484 100.233 275.482 100.124 275.48 100.034C275.479 99.9895 275.478 99.9491 275.477 99.9135C275.477 99.8957 275.476 99.879 275.475 99.8636C275.475 99.8559 275.475 99.8485 275.475 99.8414C275.474 99.8378 275.474 99.8327 275.474 99.8309C275.474 99.8259 275.474 99.8209 267.981 100.144ZM256.959 155.357V171.745H271.959V155.357H256.959ZM260.498 82.1998C260.497 82.1536 260.498 82.3553 260.499 82.9668C260.5 83.4987 260.5 84.2289 260.5 85.0926C260.499 86.819 260.497 89.0649 260.494 91.2938C260.491 93.5221 260.488 95.7315 260.485 97.3838C260.484 98.21 260.483 98.8968 260.482 99.3771C260.482 99.6172 260.481 99.8057 260.481 99.9341C260.481 99.9984 260.481 100.048 260.481 100.081C260.481 100.097 260.481 100.11 260.481 100.118C260.481 100.122 260.481 100.126 260.481 100.128C260.481 100.129 260.481 100.13 260.481 100.13C260.481 100.13 260.481 100.131 260.481 100.131C260.481 100.131 260.481 100.131 267.981 100.144C275.481 100.157 275.481 100.157 275.481 100.157C275.481 100.157 275.481 100.157 275.481 100.157C275.481 100.156 275.481 100.155 275.481 100.154C275.481 100.152 275.481 100.149 275.481 100.145C275.481 100.136 275.481 100.124 275.481 100.107C275.481 100.074 275.481 100.024 275.481 99.9601C275.481 99.8315 275.482 99.6428 275.482 99.4025C275.483 98.9218 275.484 98.2345 275.485 97.4078C275.488 95.7545 275.491 93.5435 275.494 91.3129C275.5 86.9752 275.504 82.2478 275.493 81.8002L260.498 82.1998ZM157.5 234V281H172.5V234H157.5ZM157.5 281V308.5H172.5V281H157.5ZM219.01 273.5H165.081V288.5H219.01V273.5ZM164.919 89.5L267.995 89.5L267.995 74.5L164.919 74.5L164.919 89.5ZM244.505 180.633H170.167V195.633H244.505V180.633ZM218.683 162.857H264.459V147.857H218.683V162.857Z" fill="url(#paint0_linear)"/>
<defs>
<linearGradient id="paint0_linear" x1="191.5" y1="82" x2="191.5" y2="343" gradientUnits="userSpaceOnUse">
<stop offset="0.112462" stop-color="white"/>
<stop offset="0.980679" stop-color="white" stop-opacity="0"/>
</linearGradient>
</defs>
</svg>
