<svg width="1350" height="802" viewBox="0 0 1350 802" fill="none" xmlns="http://www.w3.org/2000/svg">
<path d="M-5 61.0001C126 16.5001 365.5 -34.3914 531.5 35.0001C870 176.5 684 582.72 1047.5 351C1372.92 143.553 1249.5 796.5 1469 596.5" stroke="url(#paint0_linear)" stroke-linecap="round"/>
<path d="M1 129C84 93.0001 336.001 -11.2506 534.501 71.4999C863.316 208.576 665.001 595.191 1046.5 372.281C1364.5 186.474 1206 789 1442.5 652.5" stroke="url(#paint1_linear)" stroke-linecap="round"/>
<path d="M-16 199.5C81.5 141 329.434 25.8512 542 113.5C850 240.5 664 615.775 1046.5 392.281C1326.5 228.677 1216 746.5 1375 691" stroke="url(#paint2_linear)" stroke-linecap="round"/>
<path d="M-9 259C77 203.5 323.5 67.9157 535.5 142C831.5 245.438 658 639.281 1046.5 412.281C1314 255.981 1188 786.5 1380.5 741" stroke="url(#paint3_linear)" stroke-linecap="round"/>
<path d="M-7.5 331.5C108.5 252.5 333.879 117.8 538 183C813.5 271 658 659.281 1046.5 432.281C1298.5 285.038 1150.5 850 1383 797.5" stroke="url(#paint4_linear)" stroke-linecap="round"/>
<defs>
<linearGradient id="paint0_linear" x1="438.5" y1="-131.5" x2="768.5" y2="916.001" gradientUnits="userSpaceOnUse">
<stop stop-color="white"/>
<stop offset="1" stop-color="white" stop-opacity="0"/>
</linearGradient>
<linearGradient id="paint1_linear" x1="438.5" y1="-111.5" x2="768.5" y2="936" gradientUnits="userSpaceOnUse">
<stop stop-color="white"/>
<stop offset="1" stop-color="white" stop-opacity="0"/>
</linearGradient>
<linearGradient id="paint2_linear" x1="438.5" y1="-91.4998" x2="768.5" y2="956.001" gradientUnits="userSpaceOnUse">
<stop stop-color="white"/>
<stop offset="1" stop-color="white" stop-opacity="0"/>
</linearGradient>
<linearGradient id="paint3_linear" x1="438.5" y1="-71.5" x2="768.5" y2="976" gradientUnits="userSpaceOnUse">
<stop stop-color="white"/>
<stop offset="1" stop-color="white" stop-opacity="0"/>
</linearGradient>
<linearGradient id="paint4_linear" x1="438.5" y1="-51.4998" x2="768.5" y2="996" gradientUnits="userSpaceOnUse">
<stop stop-color="white"/>
<stop offset="1" stop-color="white" stop-opacity="0"/>
</linearGradient>
</defs>
</svg>
